# xmcd
#
# Track frame offsets: 
#        150
#        4412
#        21702
#        40814
#        59909
#        88999
#        111795
#        136091
#        160594
#        188014
#        205433
#        228158
#        253705
#        269260
#        274359
#        298822
#
# Disc length: 4196 seconds
#
# Revision: 2
# Processed by: cddbd v1.5.2PL0 Copyright (c) Steve Scherf et al.
# Submitted via: ExactAudioCopy v0.99pb5
#
DISCID=f5106210
DTITLE=Orient Expressions - Kirik Kalpler Albumu
DYEAR=2008
DGENRE=Electronic
TTITLE0=Intro
TTITLE1=Su Gibi
TTITLE2=Poyraz
TTITLE3=Faniler
TTITLE4=Tutsak
TTITLE5=Angels
TTITLE6=Ne Olur Geri Donme
TTITLE7=Basa Sar Beni
TTITLE8=Sehristan
TTITLE9=Derde Dustum
TTITLE10=Baska Bir Ask
TTITLE11=Bos Pavyon
TTITLE12=Asik Olma
TTITLE13=Outro
TTITLE14=Rewind me
TTITLE15=Su Gibi (Enstrumantal)
EXTD=YEAR: 2008
EXTT0=
EXTT1=
EXTT2=
EXTT3=
EXTT4=
EXTT5=
EXTT6=
EXTT7=
EXTT8=
EXTT9=
EXTT10=
EXTT11=
EXTT12=
EXTT13=
EXTT14=
EXTT15=
PLAYORDER=
